<svg width="451" height="179" viewBox="0 0 451 179" fill="none" xmlns="http://www.w3.org/2000/svg">
<path fill-rule="evenodd" clip-rule="evenodd" d="M29.6774 87.0768H18.5067V92.0786C4.83507 92.9123 0 97.4139 0 109.585C0 121.256 4.83507 125.591 18.5067 126.424V131.593H29.6774V126.424C43.1822 125.591 48.0173 121.256 48.184 109.585C48.0173 97.4139 43.1822 92.9123 29.6774 92.0786V87.0768ZM19.0068 118.421C12.5045 117.921 11.1707 115.921 11.1707 109.585C11.1707 102.749 12.5045 100.582 19.0068 100.082V118.421ZM29.0104 100.082C35.5128 100.582 37.0133 102.916 37.0133 109.585C37.0133 115.921 35.5128 117.921 29.0104 118.421V100.082ZM74.8603 120.756L77.3612 130.426H88.6986L77.5279 92.5788C77.0277 90.9115 75.5272 89.7445 73.8599 89.7445H63.5229C61.6889 89.7445 60.1883 90.9115 59.8549 92.5788L48.6842 130.426H60.0216L62.3558 120.756H74.8603ZM72.8596 112.753H64.5232L67.0241 102.249C67.3576 100.915 67.691 99.4146 67.8578 98.0808H69.525C69.525 99.4146 70.0252 100.915 70.1919 102.249L72.8596 112.753ZM103.204 105.75V97.9141H120.71L121.544 89.7445C116.709 89.411 111.874 89.2443 106.705 89.2443C102.037 89.2443 97.0349 89.411 92.0331 89.7445V130.426H92.3666C97.7019 130.759 102.37 130.926 109.039 130.926C119.376 130.926 124.211 128.592 124.211 118.255C124.211 108.751 120.21 105.75 108.206 105.75H103.204ZM103.204 122.923V112.919H108.206C112.374 112.919 113.207 113.92 113.207 117.921C113.207 122.089 112.374 122.923 108.206 122.923H103.204ZM129.547 130.426H140.551V115.921C142.718 116.087 145.219 116.254 147.386 116.254C158.057 116.254 161.892 113.42 161.892 102.749C161.892 92.0786 158.057 89.0775 146.053 89.0775C138.216 89.0775 134.715 89.2443 129.547 89.7445V130.426ZM140.551 108.251V97.2472H145.719C149.721 97.2472 150.888 98.2475 150.888 102.749C150.888 107.084 149.721 108.251 145.719 108.251H140.551ZM202.239 130.426V89.7445H191.569L179.898 110.752C178.898 112.586 178.064 114.587 177.397 116.587H176.897C177.23 114.42 177.564 112.253 177.564 110.419V89.7445H167.06V130.426H177.731L189.402 109.085C190.402 107.251 191.236 105.25 191.736 103.249H192.236C191.902 105.25 191.569 107.251 191.569 109.251V130.426H202.239ZM230.416 109.085C238.419 107.918 238.753 104.25 243.254 89.7445H231.917C228.749 101.916 227.915 105.583 222.247 105.583H220.246C220.579 103.916 220.746 102.082 220.746 100.582V89.7445H209.742V130.426H220.746V116.754C220.746 115.754 220.579 114.253 220.246 113.086H222.413C228.082 113.086 228.582 115.754 232.75 130.426H244.255C239.253 113.753 238.753 110.585 230.416 109.418V109.085ZM270.931 120.756L273.265 130.426H284.602L273.599 92.5788C273.098 90.9115 271.598 89.7445 269.764 89.7445H259.593C257.759 89.7445 256.259 90.9115 255.759 92.5788L244.588 130.426H255.925L258.426 120.756H270.931ZM268.763 112.753H260.427L263.095 102.249C263.428 100.915 263.595 99.4146 263.928 98.0808H265.429C265.596 99.4146 265.929 100.915 266.263 102.249L268.763 112.753ZM311.779 105.75V97.9141H329.285L330.119 89.7445C325.284 89.411 320.449 89.2443 315.28 89.2443C310.612 89.2443 305.61 89.411 300.608 89.7445V130.426H300.942C306.277 130.759 310.945 130.926 317.614 130.926C327.951 130.926 332.787 128.592 332.787 118.255C332.787 108.751 328.785 105.75 316.781 105.75H311.779ZM311.779 122.923V112.919H316.781C320.949 112.919 321.616 113.92 321.616 117.921C321.616 122.089 320.949 122.923 316.781 122.923H311.779ZM360.296 120.756L362.797 130.426H374.135L362.964 92.5788C362.464 90.9115 360.963 89.7445 359.129 89.7445H348.959C347.125 89.7445 345.624 90.9115 345.291 92.5788L334.12 130.426H345.458L347.792 120.756H360.296ZM358.296 112.753H349.959L352.46 102.249C352.794 100.915 353.127 99.4146 353.294 98.0808H354.961C354.961 99.4146 355.295 100.915 355.628 102.249L358.296 112.753ZM411.815 89.7445H400.811V104.75H388.64V89.7445H377.469V130.426H388.64V112.919H400.811V130.426H411.815V89.7445ZM430.322 104.25V89.7445H419.318V130.426H419.651C424.82 130.759 428.988 130.926 436.991 130.926C446.661 130.926 450.829 127.925 450.829 117.588C450.829 107.251 446.828 104.25 434.99 104.25H430.322ZM430.322 122.923V111.252H434.99C438.991 111.252 439.658 112.586 439.658 117.254C439.658 121.923 438.991 122.923 434.99 122.923H430.322Z" fill="white"/>
<path fill-rule="evenodd" clip-rule="evenodd" d="M115.708 165.939C113.374 166.272 110.707 166.439 109.373 166.439C105.705 166.439 104.371 165.105 104.371 160.603C104.371 155.935 105.705 154.768 109.373 154.768C111.04 154.768 113.041 154.768 115.375 154.768L116.042 150.933C113.708 149.933 110.54 149.599 108.372 149.599C100.703 149.599 98.0353 152.6 98.0353 160.603C98.0353 168.439 100.703 171.441 108.372 171.441C111.04 171.441 114.041 170.94 116.375 169.94L115.708 165.939ZM138.216 155.101V150.266H118.376V155.101H125.212V170.94H131.381V155.101H138.216ZM146.72 150.266H141.718V178.777H147.72V173.775C147.887 172.274 147.72 170.774 147.72 169.44C149.554 170.774 152.055 171.441 154.556 171.441C159.724 171.441 162.559 168.94 162.559 160.77C162.559 153.768 160.391 149.766 155.389 149.766C152.221 149.766 148.887 151.267 147.053 153.267L146.72 150.266ZM147.72 156.602C149.721 155.268 151.054 154.601 152.888 154.601C155.223 154.601 156.056 155.768 156.056 160.77C156.056 165.939 155.056 166.772 152.555 166.772C150.721 166.772 149.387 166.439 147.72 165.939V156.602ZM176.564 149.599C168.894 149.599 165.893 152.6 165.893 160.603C165.893 168.439 168.894 171.441 176.564 171.441C184.4 171.441 187.234 168.439 187.234 160.603C187.234 152.6 184.4 149.599 176.564 149.599ZM176.564 154.268C179.731 154.268 180.732 155.602 180.732 160.603C180.732 165.605 179.731 166.772 176.564 166.772C173.396 166.772 172.395 165.605 172.395 160.603C172.395 155.602 173.396 154.268 176.564 154.268ZM211.576 170.94V150.266H206.408L198.405 161.437C197.905 162.271 197.404 163.271 196.904 164.271H196.738C196.904 163.104 197.071 162.271 197.071 161.27V150.266H191.569V170.94H196.738L204.574 159.936C205.074 159.103 205.741 157.936 206.074 156.769H206.241C206.241 158.102 206.074 159.103 206.074 160.103V170.94H211.576ZM236.252 150.266C234.918 150.266 234.251 150.933 233.918 152.1L231.417 161.27C231.083 162.271 231.083 163.271 230.75 164.438H230.416C230.25 163.271 230.083 162.271 229.749 161.27L227.249 152.1C226.915 150.933 226.248 150.266 224.914 150.266H219.412C217.912 150.266 217.245 150.933 217.245 152.434L216.578 170.94H222.08L222.58 154.768H223.247L226.582 166.272C226.915 167.606 227.582 168.273 228.916 168.273H232.25C233.584 168.273 234.251 167.606 234.584 166.272L237.919 154.768H238.586L239.086 170.94H244.755L244.088 152.434C244.088 150.933 243.254 150.266 241.92 150.266H236.252ZM276.933 139.929C273.265 141.93 269.931 141.096 265.929 142.43C259.427 144.598 258.26 149.933 258.26 158.269C258.26 165.605 258.76 171.441 268.93 171.441C276.766 171.441 279.101 167.606 279.101 160.77C279.101 153.768 276.933 150.933 270.431 150.933C266.096 150.933 264.262 152.434 262.928 154.268H262.761C262.928 153.601 263.095 152.434 263.595 151.267C264.095 149.599 265.095 147.765 267.93 146.932C271.598 145.931 274.265 146.932 278.1 144.764L276.933 139.929ZM268.93 155.268C271.765 155.268 272.598 156.268 272.598 160.77C272.598 165.605 271.765 166.772 268.763 166.772C265.596 166.772 264.762 165.605 264.762 160.77C264.762 156.769 265.262 155.268 268.93 155.268ZM284.102 154.935C287.437 154.601 290.771 154.601 292.772 154.601C295.44 154.601 296.107 155.101 296.107 157.269V158.102H288.771C284.769 158.102 282.435 160.103 282.435 163.271V165.438C282.435 169.273 285.436 171.441 289.104 171.441C292.939 171.441 295.44 169.44 296.774 167.773L297.44 170.94H302.442V157.269C302.442 151.433 299.441 149.599 294.273 149.599C291.438 149.599 286.436 150.1 283.435 150.6L284.102 154.935ZM288.604 163.771C288.604 162.604 289.104 161.937 290.605 161.77H296.107V164.771C294.439 166.105 292.439 166.772 290.938 166.772C289.271 166.772 288.604 166.105 288.604 164.605V163.771ZM327.451 150.266H321.282V157.769H313.613V150.266H307.444V170.94H313.613V162.104H321.282V170.94H327.451V150.266ZM352.794 170.94V150.266H347.458L339.622 161.437C339.122 162.271 338.455 163.271 338.122 164.271H337.955C338.122 163.104 338.122 162.271 338.122 161.27V150.266H332.62V170.94H337.955L345.791 159.936C346.291 159.103 346.958 157.936 347.292 156.769H347.458C347.292 158.102 347.292 159.103 347.292 160.103V170.94H352.794Z" fill="white"/>
<path fill-rule="evenodd" clip-rule="evenodd" d="M228.249 23.0538C226.248 25.5547 226.248 24.8878 226.415 28.8892C226.415 31.3901 226.415 34.0577 226.582 36.3919C227.415 36.3919 235.251 30.8899 240.753 29.7228C236.752 32.057 232.584 34.2245 229.249 36.8921C226.248 39.2263 226.582 38.5594 226.582 43.2277C226.582 45.0617 226.415 51.2306 226.582 52.2309C229.916 50.8971 232.417 48.563 236.585 48.2295C235.418 49.2299 226.582 52.3977 226.415 55.5655C226.248 61.2342 226.081 67.0696 226.081 72.9051C228.582 72.2381 232.75 68.4034 234.251 66.7362C235.085 65.7358 236.418 63.7351 236.585 62.2345C237.085 59.7336 235.585 58.9 234.084 58.2331C234.918 57.8997 234.751 57.7329 235.752 57.7329C236.585 56.8993 237.419 56.5658 238.419 55.8989C238.919 55.5655 239.253 55.232 239.586 54.8986C240.086 54.3984 240.086 54.0649 240.587 53.7315C241.254 52.7311 241.587 52.7311 242.087 51.564C242.587 50.5637 242.921 49.5633 243.421 48.7297C243.088 45.0617 243.254 42.3941 239.086 42.2273L243.254 38.3926C243.921 37.0588 244.922 36.0585 245.755 34.3912C246.589 32.7239 246.922 31.0567 247.422 29.8896C247.589 25.8881 246.589 22.3869 242.087 22.887L240.587 23.2205C242.087 19.5525 243.921 17.7185 243.588 12.55C241.754 7.71491 238.753 8.21509 233.584 8.882C233.584 5.88092 233.417 3.8802 231.75 2.21293C230.25 0.879118 228.082 0.0454845 225.415 0.0454845C222.747 0.0454845 220.413 0.879118 219.079 2.37966C217.412 3.8802 217.245 6.04765 217.245 8.882C215.077 8.71527 208.408 6.71455 207.241 12.8834C206.908 17.8852 208.909 19.886 210.242 23.2205C208.909 23.0538 207.741 22.5536 206.241 23.0538C204.907 23.554 204.74 24.5543 204.073 25.0545C203.407 27.3887 203.573 27.7221 203.407 30.0563C203.74 30.7232 204.24 32.8906 204.74 33.7243C206.741 38.0592 208.575 39.2263 211.576 42.0606L210.909 42.2273C209.909 42.5608 209.575 42.3941 208.742 43.2277C208.075 43.8946 207.741 44.5615 207.575 45.7286C207.075 48.7297 208.242 50.0635 208.909 52.2309C209.409 52.5644 210.409 54.0649 212.243 55.5655C213.91 57.066 215.911 57.5662 216.578 58.5666C211.576 60.4006 215.244 64.402 216.578 66.7362C217.078 67.0696 221.08 71.738 224.748 72.9051C224.914 70.2374 224.581 67.4031 224.581 64.7354C224.414 62.2345 224.748 58.0664 224.414 55.8989C224.081 53.5648 216.245 49.73 213.744 48.7297C215.911 48.0628 222.58 51.3973 224.081 52.5644C224.081 52.5644 224.247 52.5644 224.247 52.3977V52.0642L224.414 51.8975V37.559C222.747 36.8921 220.413 34.8914 218.245 33.891L211.409 31.0567C213.41 31.2234 216.745 32.057 218.412 32.7239C219.746 33.0574 223.747 34.8914 224.414 34.8914C224.581 32.2237 224.414 29.7228 224.581 27.0552C224.581 23.554 224.414 23.7207 222.58 21.5532C220.079 18.7189 217.578 16.5514 214.244 14.7174C217.078 15.5511 220.579 17.3851 222.58 19.3858C222.914 19.7192 224.247 21.053 224.581 21.2198C224.748 18.052 224.748 6.3811 225.581 4.21365L226.248 22.887C226.915 22.7203 231.417 17.2183 236.085 15.0509C234.418 17.0516 231.583 18.8856 228.249 23.0538Z" fill="#FDFDFD"/>
<path fill-rule="evenodd" clip-rule="evenodd" d="M277.267 37.3923C276.933 40.3933 277.267 39.8932 274.599 42.3941C272.932 44.0613 271.431 45.5619 269.764 47.0624C269.264 46.5622 267.763 38.0592 264.929 33.891C265.929 37.7257 267.263 41.7272 267.763 45.5619C268.097 49.0631 268.43 48.3962 265.262 51.564C264.262 52.7311 260.427 56.7326 259.594 57.066C258.26 54.2317 258.26 51.0639 255.759 48.2295C255.926 49.73 259.427 57.2327 257.593 59.4002C254.092 63.2349 250.424 67.0696 246.756 70.7376C245.422 68.7369 245.255 63.5684 245.422 61.5676C245.588 60.4006 245.922 58.3998 246.756 57.066C248.089 55.3987 249.59 55.7322 250.924 56.2324C250.59 55.5655 250.757 55.3987 250.257 54.8986C250.257 53.8982 249.923 53.0646 249.757 51.8975C249.757 51.3973 249.59 51.0639 249.59 50.5637C249.59 50.0635 249.757 49.73 249.59 49.2299C249.923 48.0628 249.757 47.896 250.09 46.729C250.424 45.8953 250.924 45.0617 251.09 44.2281C253.591 42.0606 255.259 40.2266 257.926 42.7275L257.76 37.7257C258.26 36.3919 258.26 35.0581 258.76 33.3908C259.26 31.8903 260.094 30.7232 260.594 29.5561C263.095 26.8885 265.929 25.3879 268.43 28.5558L269.097 29.7228C270.597 26.3883 270.597 24.0541 274.265 20.8863C278.434 19.0523 279.934 21.2198 282.769 24.8878C284.769 23.0538 286.103 21.8867 288.27 21.8867C290.104 22.0534 292.105 22.887 293.772 24.5543C295.44 26.3883 296.273 28.2223 296.44 30.0563C296.44 32.057 295.106 33.5576 293.439 35.3915C294.773 36.7254 300.442 39.7264 297.107 44.3948C294.106 47.896 291.605 47.7293 288.604 49.0631C289.604 49.8968 290.605 50.3969 291.272 51.564C291.772 52.7311 291.272 53.5648 291.438 54.2317C290.271 56.0657 289.938 56.2324 288.604 57.8997C287.937 58.0664 286.27 59.0667 285.436 59.4002C281.435 60.9007 279.434 60.4006 275.766 60.2338L275.933 60.734C276.433 61.5676 276.766 61.7344 276.766 62.7347C276.766 63.7351 276.6 64.402 275.933 65.2356C274.432 67.4031 272.765 67.5698 270.931 68.4034C270.431 68.4034 268.763 68.7369 266.596 68.5702C264.595 68.4034 263.095 67.5698 261.928 67.5698C263.928 72.0714 258.927 72.2381 256.759 72.9051C256.092 72.7383 250.59 73.2385 247.422 71.5712C249.256 69.7372 251.09 68.07 252.924 66.4027C254.592 64.9022 257.093 62.2345 258.593 60.9007C260.427 59.5669 267.763 62.0678 269.931 63.0682C269.097 61.4009 262.761 59.2335 260.927 59.0667C260.927 58.9 260.927 58.9 260.927 58.9L261.094 58.5666L261.261 58.3998L270.431 49.2299C271.765 49.73 274.599 50.0635 276.6 50.7304L282.769 53.398C281.601 52.2309 278.767 50.5637 277.267 49.8968C276.266 49.3966 272.598 47.896 272.098 47.3959C273.765 45.7286 275.433 44.0613 276.933 42.3941C279.267 40.0599 279.267 40.2266 281.768 40.2266C285.103 39.8932 288.104 40.2266 291.605 41.0603C289.271 39.8932 285.77 38.7261 283.102 38.7261C282.769 38.7261 280.935 38.7261 280.601 38.5594C282.602 36.5586 290.104 29.0559 290.938 27.0552L278.6 38.5594C278.267 38.2259 278.934 31.7236 277.267 27.3887C277.1 29.7228 277.767 32.5572 277.267 37.3923Z" fill="#FDFDFD"/>
<path fill-rule="evenodd" clip-rule="evenodd" d="M173.563 37.3923C173.896 40.3933 173.563 39.8932 176.063 42.3941C177.731 44.0613 179.398 45.5619 181.065 47.0624C181.565 46.5622 183.066 38.0592 185.9 33.891C184.733 37.7257 183.399 41.7272 183.066 45.5619C182.732 49.0631 182.399 48.3962 185.4 51.564C186.567 52.7311 190.402 56.7326 191.236 57.066C192.403 54.2317 192.569 51.0639 195.07 48.2295C194.904 49.73 191.236 57.2327 193.236 59.4002C196.738 63.2349 200.406 67.0696 203.907 70.7376C205.241 68.7369 205.407 63.5684 205.241 61.5676C205.241 60.4006 204.74 58.3998 203.907 57.066C202.74 55.3987 201.239 55.7322 199.739 56.2324C200.239 55.5655 199.905 55.3987 200.572 54.8986C200.572 53.8982 200.906 53.0646 201.072 51.8975C201.072 51.3973 201.072 51.0639 201.072 50.5637C201.239 50.0635 201.072 49.73 201.072 49.2299C200.906 48.0628 201.072 47.896 200.572 46.729C200.239 45.8953 199.905 45.0617 199.572 44.2281C197.071 42.0606 195.57 40.2266 192.736 42.7275L193.07 37.7257C192.569 36.3919 192.569 35.0581 192.069 33.3908C191.569 31.8903 190.735 30.7232 190.068 29.5561C187.734 26.8885 184.9 25.3879 182.399 28.5558L181.565 29.7228C180.232 26.3883 180.065 24.0541 176.564 20.8863C172.395 19.0523 170.728 21.2198 167.894 24.8878C166.06 23.0538 164.726 21.8867 162.392 21.8867C160.558 22.0534 158.724 22.887 156.89 24.5543C155.223 26.3883 154.389 28.2223 154.389 30.0563C154.389 32.057 155.556 33.5576 157.39 35.3915C155.889 36.7254 150.387 39.7264 153.555 44.3948C156.556 47.896 159.057 47.7293 162.058 49.0631C161.058 49.8968 160.058 50.3969 159.557 51.564C159.057 52.7311 159.391 53.5648 159.391 54.2317C160.391 56.0657 160.891 56.2324 162.058 57.8997C162.725 58.0664 164.393 59.0667 165.226 59.4002C169.394 60.9007 171.228 60.4006 174.896 60.2338L174.73 60.734C174.396 61.5676 174.063 61.7344 174.063 62.7347C174.063 63.7351 174.229 64.402 174.896 65.2356C176.397 67.4031 178.064 67.5698 179.898 68.4034C180.232 68.4034 181.899 68.7369 184.066 68.5702C186.234 68.4034 187.734 67.5698 188.735 67.5698C186.734 72.0714 191.736 72.2381 194.07 72.9051C194.57 72.7383 200.239 73.2385 203.24 71.5712C201.573 69.7372 199.572 68.07 197.905 66.4027C196.237 64.9022 193.736 62.2345 192.069 60.9007C190.402 59.5669 182.899 62.0678 180.732 63.0682C181.565 61.4009 188.068 59.2335 189.735 59.0667C189.735 58.9 189.735 58.9 189.735 58.9L189.568 58.5666V58.3998L180.232 49.2299C178.898 49.73 176.063 50.0635 174.063 50.7304L167.894 53.398C169.228 52.2309 171.895 50.5637 173.396 49.8968C174.563 49.3966 178.231 47.896 178.564 47.3959C177.064 45.7286 175.396 44.0613 173.729 42.3941C171.562 40.0599 171.562 40.2266 168.894 40.2266C165.56 39.8932 162.559 40.2266 159.224 41.0603C161.558 39.8932 165.059 38.7261 167.56 38.7261C168.061 38.7261 169.728 38.7261 170.061 38.5594C168.061 36.5586 160.558 29.0559 159.724 27.0552L172.229 38.5594C172.562 38.2259 171.895 31.7236 173.396 27.3887C173.729 29.7228 173.062 32.5572 173.563 37.3923Z" fill="#FDFDFD"/>
</svg>
